<?xml version="1.0" encoding="UTF-8" standalone="no"?>
<!-- Created with Inkscape (http://www.inkscape.org/) -->

<svg
   version="1.1"
   id="svg1"
   width="450"
   height="350"
   viewBox="0 0 450 350"
   sodipodi:docname="sipiun_logo_cijeli.svg"
   inkscape:version="1.4.2 (f4327f4, 2025-05-13)"
   xmlns:inkscape="http://www.inkscape.org/namespaces/inkscape"
   xmlns:sodipodi="http://sodipodi.sourceforge.net/DTD/sodipodi-0.dtd"
   xmlns="http://www.w3.org/2000/svg"
   xmlns:svg="http://www.w3.org/2000/svg">
  <defs
     id="defs1">
    <rect
       x="6.0155239"
       y="40.750324"
       width="76.455368"
       height="78.589912"
       id="rect1" />
  </defs>
  <sodipodi:namedview
     id="namedview1"
     pagecolor="#ffffff"
     bordercolor="#000000"
     borderopacity="0.25"
     inkscape:showpageshadow="2"
     inkscape:pageopacity="0.0"
     inkscape:pagecheckerboard="0"
     inkscape:deskcolor="#d1d1d1"
     showgrid="false"
     inkscape:zoom="3.6439569"
     inkscape:cx="75.74184"
     inkscape:cy="114.57325"
     inkscape:window-width="1920"
     inkscape:window-height="991"
     inkscape:window-x="-9"
     inkscape:window-y="-9"
     inkscape:window-maximized="1"
     inkscape:current-layer="g1" />
  <g
     inkscape:groupmode="layer"
     inkscape:label="Image"
     id="g1">
    <g
       id="g3">
      <path
         style="fill:#8d0809;fill-opacity:1;stroke-width:1.27066"
         d="m 187.94303,204.31523 c -1.14864,-1.03806 1.23744,-10.69155 5.44461,-22.02714 2.15331,-5.80181 3.70112,-10.75003 3.43964,-10.9961 -0.26151,-0.24601 -2.45819,1.44479 -4.88148,3.75739 -5.18932,4.95219 -15.1703,9.83878 -18.05365,8.83891 -1.97273,-0.68414 -1.89478,-2.2412 0.36165,-7.22495 0.8424,-1.8607 0.60634,-2.16903 -1.185,-1.54781 -3.68055,1.27635 -2.60353,-2.00779 1.92442,-5.86806 2.28878,-1.95127 5.60454,-5.58618 7.36827,-8.07752 1.76378,-2.49136 4.10154,-4.52975 5.19507,-4.52975 1.09349,0 1.98817,0.28267 1.98817,0.6281 0,0.34546 -2.71271,5.50936 -6.0283,11.47536 -3.31555,5.96597 -5.664,10.84723 -5.21872,10.84723 2.09989,0 10.1267,-5.97777 18.87359,-14.05574 5.29739,-4.89223 9.9589,-8.89495 10.35897,-8.89495 0.40009,0 0.72743,1.12658 0.72743,2.50354 v 2.50353 l 3.52184,-2.50353 c 8.18051,-5.81516 17.01064,-0.87856 13.86003,7.74863 -0.86459,2.3674 -3.07742,5.92128 -4.91748,7.8975 -1.84007,1.97622 -2.65106,3.59308 -1.80223,3.59308 4.89398,0 19.27328,-10.74555 22.84441,-17.07148 1.45034,-2.5692 3.52703,-4.67127 4.61483,-4.67127 2.68805,0 2.69884,-0.0345 -3.45325,11.02319 -2.98707,5.36888 -5.1113,10.05058 -4.72049,10.40371 0.76132,0.688 21.30277,-14.75078 25.17562,-18.92179 2.47664,-2.66729 5.02548,-3.31162 5.02548,-1.27036 0,0.67912 -2.44394,5.62747 -5.431,10.99636 -2.98706,5.36888 -5.12693,10.03649 -4.7552,10.37236 1.76238,1.5927 20.28712,-12.35553 22.33059,-16.81387 1.59972,-3.4902 5.54786,-6.30936 6.99921,-4.99781 0.43015,0.38879 -0.99448,3.88735 -3.16584,7.77464 -2.17141,3.88727 -3.948,7.38142 -3.948,7.7647 0,0.38333 4.18534,-2.48681 9.30074,-6.37807 11.3929,-8.66654 15.62362,-10.8626 17.55843,-9.11407 0.98758,0.89245 -0.21984,4.201 -4.03692,11.06172 -2.99526,5.38365 -5.44591,10.07228 -5.44591,10.4192 0,1.51126 2.71556,0.33634 8.58755,-3.71551 6.16175,-4.25183 8.4979,-4.69056 7.06997,-1.32779 -0.89777,2.11426 -12.55998,9.1556 -16.7308,10.10158 -6.04093,1.37021 -6.18288,-1.30135 -0.58222,-10.96036 3.20138,-5.52118 4.65748,-9.17026 3.65922,-9.17026 -0.91191,0 -7.08914,4.62035 -13.72722,10.26744 -6.63803,5.64707 -12.79592,10.26737 -13.68416,10.26737 -1.56601,0 -1.24414,-2.88496 0.87996,-7.8873 0.59758,-1.40733 -1.38737,-0.66268 -6.18707,2.32099 -13.49563,8.38945 -19.2004,7.09982 -12.96157,-2.93011 3.58299,-5.76018 3.21515,-8.18504 -0.60327,-3.97714 -1.00896,1.11187 -5.3592,4.37329 -9.66718,7.24757 -10.33026,6.89236 -15.45286,6.98701 -11.44027,0.2115 2.17857,-3.67871 0.86583,-3.80091 -5.53516,-0.51514 -7.03796,3.61265 -23.35909,6.57329 -25.51188,4.62779 -2.09334,-1.89173 -0.17219,-3.92976 3.70441,-3.92976 5.14074,0 8.33808,-2.07075 12.621,-8.17393 8.51254,-12.13034 2.15521,-15.53235 -9.32676,-4.99104 -7.35333,6.75089 -11.2466,14.43595 -14.08379,27.80057 -2.10055,9.89473 -3.71926,12.46641 -6.35029,10.08871 z m 159.58762,-3.88755 c -4.70754,-6.03094 -9.53979,-15.72515 -12.60869,-25.29487 -2.65724,-8.28594 -3.0251,-12.15078 -3.0251,-31.77983 0,-16.83707 0.58283,-24.78635 2.36399,-32.24167 6.73077,-28.172846 18.96168,-49.78086 36.26916,-64.075771 14.56676,-12.031223 29.0316,-15.270422 42.78362,-9.580782 8.75024,3.62024 9.87,5.090189 1.9551,2.566561 -25.62163,-8.169378 -56.15102,16.370841 -71.11638,57.165026 -7.24246,19.742206 -9.35716,33.352116 -8.55669,55.069566 0.83146,22.55762 3.96509,34.2029 12.63755,46.96383 3.57394,5.25884 3.09805,6.07701 -0.70256,1.20794 z m 7.05226,-5.29152 c 1.64525,-9.43446 3.31846,-13.92194 6.97321,-18.70141 1.97473,-2.58249 5.58607,-7.33649 8.02512,-10.56445 2.43907,-3.22799 4.80187,-7.94445 5.2507,-10.48097 1.05108,-5.94023 5.89671,-8.17602 13.07785,-6.03426 5.60246,1.67094 10.60866,1.89277 16.43104,0.7281 4.08108,-0.81636 4.42254,-0.59073 7.51256,4.96477 5.00834,9.00423 5.54499,11.26056 2.67102,11.22918 -4.37293,-0.0476 -13.20814,-4.40119 -18.95016,-9.33746 l -5.63168,-4.84145 -1.83207,3.96255 c -1.00765,2.17943 -4.54905,6.97708 -7.86979,10.66144 -5.3015,5.8821 -9.55492,11.82369 -20.34512,28.42029 -4.18244,6.43306 -6.43515,6.43043 -5.31268,-0.004 z M 129.39988,182.39291 c -5.79307,-2.72412 -6.40051,-5.18792 -2.33276,-9.4616 2.45975,-2.58427 4.66619,-3.44539 10.0188,-3.91019 8.91858,-0.77445 19.04281,0.60387 19.04281,2.59246 0,1.1637 -2.59697,1.40229 -10.66784,0.98005 -8.67772,-0.45398 -11.34154,-0.15896 -14.279,1.58018 l -3.61115,2.13829 3.25172,2.38049 c 6.17767,4.52248 30.43839,1.12499 32.87071,-4.60325 1.84,-4.33321 -0.91482,-7.7663 -9.25885,-11.53851 -11.284,-5.10133 -13.01027,-6.673 -12.9998,-11.83549 0.0208,-10.25062 13.69544,-19.44169 28.92566,-19.44169 4.88659,0 6.11876,0.48257 7.32098,2.86704 1.81801,3.60593 0.1045,6.78141 -5.86485,10.8676 -4.31791,2.95583 -19.26686,7.592 -20.59875,6.38834 -1.49421,-1.35032 1.13151,-2.96412 9.08866,-5.58604 9.96885,-3.28483 15.58617,-7.7096 13.15218,-10.36 -2.31865,-2.52474 -4.9174,-2.20841 -14.09665,1.716 -8.72771,3.73136 -13.92612,8.5115 -13.92612,12.80569 0,3.21315 2.68774,5.4953 10.6931,9.07936 8.72845,3.90779 12.02978,7.04221 12.02978,11.42154 0,8.32708 -7.25515,12.43473 -23.79552,13.47232 -8.32633,0.52232 -11.18036,0.22624 -14.96311,-1.55259 z m 292.14261,-32.39633 c -3.37082,-2.32526 -6.76563,-4.22774 -7.54396,-4.22774 -1.79617,0 -0.7084,-3.10837 4.24548,-12.1315 3.02933,-5.51777 4.35416,-10.48368 6.01254,-22.5374 3.74297,-27.204989 3.78236,-28.02084 1.3933,-28.849321 -1.62493,-0.563517 -1.82496,-1.282751 -0.82589,-2.969765 1.35979,-2.2961 8.1725,-2.736484 11.66492,-0.754045 0.91893,0.521636 2.27001,0.613732 3.00242,0.204681 1.30917,-0.731205 6.704,-1.898329 6.6717,-1.443355 -0.007,0.128004 -0.90387,9.201509 -1.98845,20.163484 -1.08455,10.961961 -1.97936,22.736131 -1.98847,26.164751 -0.0167,6.14893 -0.0952,6.26825 -5.78506,8.75749 -3.17269,1.38798 -6.63125,2.52564 -7.68567,2.52811 -3.08044,0.007 -10.60528,4.63349 -10.60528,6.52006 0,0.95061 2.40596,4.06007 5.34658,6.90993 2.94061,2.84988 5.34654,5.3415 5.34654,5.53696 0,0.89243 -1.55797,0.0614 -7.2607,-3.87234 z m 3.94693,-17.98781 c 1.15195,-1.58879 4.18422,-10.04786 6.73838,-18.79797 2.55417,-8.75009 6.39972,-19.408695 8.54568,-23.685784 2.14596,-4.277074 3.41165,-7.776502 2.81261,-7.776502 -3.12172,0 -8.16896,11.224406 -14.09977,31.355986 -2.55617,8.67655 -5.62918,17.12946 -6.82896,18.78424 -1.288,1.77642 -1.58367,3.00873 -0.72189,3.00873 0.80275,0 2.40202,-1.29992 3.55395,-2.8887 z m -237.81896,20.11915 c -1.59882,-1.44488 -0.74505,-5.24568 1.34086,-5.96904 2.39562,-0.83078 4.64269,1.59419 3.648,3.93675 -0.7661,1.8042 -3.85079,3.06077 -4.98886,2.03229 z m 188.29399,-5.21181 c -1.22763,-1.79511 -0.25128,-2.4306 1.89372,-1.23259 1.14913,0.64183 1.28584,1.26436 0.38782,1.76593 -0.76284,0.42606 -1.78955,0.18606 -2.28154,-0.53334 z m 8.77923,-1.11564 c -3.2809,-1.17352 -7.82265,-3.835 -10.09276,-5.91438 -4.4025,-4.03266 -6.75572,-4.89516 -5.53925,-2.03032 0.49679,1.16992 0.10103,1.52764 -1.19364,1.07868 -2.8571,-0.99078 -2.35729,1.71435 0.57913,3.13453 1.38382,0.66928 2.87999,2.07403 3.32487,3.12169 1.49797,3.52777 -7.21692,-2.03957 -10.82333,-6.91424 -4.88825,-6.60734 -6.43356,-11.70476 -5.91567,-19.51343 0.61113,-9.21447 1.9457,-7.79166 1.70533,1.81809 -0.15785,6.318 0.37378,8.24377 3.34761,12.12178 1.94451,2.53576 4.07404,4.61047 4.73229,4.61047 2.34896,0 2.73616,-3.75131 0.60667,-5.8778 -1.19185,-1.1902 -2.16704,-3.04685 -2.16704,-4.12592 0,-1.07906 -0.70076,-3.35181 -1.5572,-5.05055 -1.3251,-2.62817 -1.14859,-3.49198 1.18377,-5.7945 1.9602,-1.93512 2.99095,-5.11448 3.6184,-11.1614 1.19758,-11.540734 2.06912,-15.099137 3.69824,-15.099137 1.21808,0 10.1333,-7.418329 30.23481,-25.15823 4.69732,-4.14547 6.58532,-5.077185 9.12237,-4.501754 3.26227,0.739949 17.49439,-2.34841 19.79641,-4.295814 2.27399,-1.923687 8.26002,-1.135047 12.90139,1.699709 3.98699,2.435083 4.55389,3.431018 4.6412,8.153534 0.0547,2.958791 0.35546,6.096468 0.66833,6.972616 0.39522,1.106751 -1.13033,1.719343 -4.99797,2.006925 -6.01724,0.447425 -15.42131,-1.916644 -16.21816,-4.077045 -0.69132,-1.874257 7.27123,-1.598046 13.71396,0.475726 5.43865,1.750557 6.93305,1.642354 5.53572,-0.400827 -1.16357,-1.701411 -13.70705,-4.187607 -17.67184,-3.502668 -2.13851,0.369434 -3.65596,-0.02879 -4.10069,-1.076134 -1.21637,-2.864522 -3.09326,-1.814603 -3.09326,1.730331 0,1.866107 -0.75188,4.242891 -1.67081,5.281749 -3.39131,3.83386 -34.0384,26.111014 -42.77247,31.090989 -8.02729,4.57699 -11.03581,7.34364 -7.9857,7.34364 0.57016,0 5.83317,-2.96685 11.6956,-6.59303 5.86243,-3.62618 13.36566,-8.08666 16.67388,-9.912185 3.30816,-1.825524 9.84652,-5.95026 14.52965,-9.166079 9.09972,-6.248629 11.36512,-6.634177 7.47779,-1.272668 -5.15271,7.106767 -14.95417,15.264862 -23.95982,19.942552 -5.17501,2.68796 -12.16845,6.45004 -15.54097,8.36017 -3.37255,1.91012 -7.68412,3.47296 -9.58132,3.47296 -4.45363,0 -7.67796,1.13776 -7.67796,2.70928 0,2.51605 12.39158,-0.2758 19.24531,-4.33604 3.75056,-2.22184 10.57061,-5.82635 15.15576,-8.01001 7.69159,-3.66312 13.8945,-8.739483 23.46489,-19.203254 2.05113,-2.242602 4.10272,-3.740017 4.55908,-3.327586 0.45638,0.412417 0.13973,5.236899 -0.7034,10.721061 -0.84319,5.484159 -2.17779,14.591539 -2.96572,20.238619 -1.79664,12.87673 -9.97902,29.57276 -15.40699,31.43776 -5.04085,1.73194 -13.79405,1.21815 -20.57649,-1.20786 z M 162.95549,123.42212 c -5.01749,-6.31394 -2.57547,-7.79233 2.99294,-1.81191 1.85573,1.99309 3.76574,3.62379 4.24438,3.62379 0.47864,0 3.52393,-1.72219 6.76729,-3.82711 7.87245,-5.10915 8.83791,-3.66226 1.64765,2.46925 -7.5286,6.42005 -10.25244,6.34104 -15.65226,-0.45402 z M 418.13318,78.57404 c 0.0132,-0.579303 1.58547,-2.393435 3.49505,-4.031403 2.93463,-2.517179 3.39653,-2.632997 2.98434,-0.748285 -0.49533,2.265107 -6.52174,6.710615 -6.47939,4.779688 z"
         id="path1" />
      <text
         xml:space="preserve"
         id="text1"
         style="font-style:normal;font-variant:normal;font-weight:normal;font-stretch:normal;line-height:0.8;font-family:'Microsoft Himalaya';-inkscape-font-specification:'Microsoft Himalaya';text-align:end;writing-mode:lr-tb;direction:ltr;white-space:pre;shape-inside:url(#rect1);display:inline;opacity:1;fill:#000000;fill-opacity:1"
         transform="matrix(3.3710893,0,0,4.3730067,-187.87269,-60.423394)"
         x="43.6875"
         y="0"><tspan
           x="61.488281"
           y="46.651563"
           id="tspan1">WINE
</tspan><tspan
           x="55.669922"
           y="56.251561"
           id="tspan2">HOUSE</tspan></text>
    </g>
    <path
       style="opacity:1;fill:#000000;fill-opacity:1"
       d="m 75.291074,96.636482 1.552394,-1.552393"
       id="path2" />
  </g>
</svg>
